<?xml version="1.0" ?>
<!-- Uploaded to: SVG Repo, www.svgrepo.com, Generator: SVG Repo Mixer Tools -->
<svg width="800px" height="800px" viewBox="0 0 64 64" xmlns="http://www.w3.org/2000/svg">
<g id="a"/>
<g id="b"/>
<g id="c"/>
<g id="d"/>
<g id="e"/>
<g id="f"/>
<g id="g"/>
<g id="h"/>
<g id="i"/>
<g id="j"/>
<g id="k"/>
<g id="l"/>
<g id="m"/>
<g id="n"/>
<g id="o"/>
<g id="p"/>
<g id="q"/>
<g id="r"/>
<g id="s"/>
<g id="t"/>
<g id="u"/>
<g id="v"/>
<g id="w"/>
<g id="x"/>
<g id="y"/>
<g id="a`"/>
<g id="aa"/>
<g id="ab"/>
<g id="ac"/>
<g id="ad"/>
<g id="ae"/>
<g id="af"/>
<g id="ag"/>
<g id="ah"/>
<g id="ai"/>
<g id="aj"/>
<g id="ak"/>
<g id="al"/>
<g id="am"/>
<g id="an"/>
<g id="ao"/>
<g id="ap"/>
<g id="aq"/>
<g id="ar"/>
<g id="as"/>
<g id="at"/>
<g id="au"/>
<g id="av"/>
<g id="aw"/>
<g id="ax">
<path d="M35.92,6.92h5.84c1.34,0,2.42,1.08,2.42,2.43s-1.08,2.42-2.42,2.42h-5.84c-1.34,0-2.42-1.08-2.42-2.42s1.08-2.43,2.42-2.43Z" fill="#d1f1f4" fill-rule="evenodd"/>
<path d="M9.01,14.83c-3.97,.01-4.01,2.33-4.01,3.8v19.03L25.63,20.66s-5.6-5.87-16.62-5.83Z" fill="#6df4c0" fill-rule="evenodd"/>
<path d="M5,37.66v15.88c0,1.96,1.58,3.54,3.53,3.54H55.46c1.96,0,3.54-1.58,3.54-3.54v-15.87l-26.51-4.92-27.49,4.91Z" fill="#49cc8c" fill-rule="evenodd"/>
<path d="M12.13,42.67c-2.19,.02-4.56,.31-7.13,1v9.87c0,1.96,1.58,3.54,3.53,3.54h29.56c1.44-4.5,.76-9.71,.76-9.71-8.06,3.25-14.89-4.77-26.72-4.7Z" fill="#6dd4a1" fill-rule="evenodd"/>
<path d="M59,37.67c0-1.88-.01-4.85-.42-5.87-1.61-4.04-6.84-13.17-21.1-13.17S9.13,28.97,6.19,32.83c-.99,1.29-1.19,3.45-1.19,4.83H59Z" fill="#9af6d3" fill-rule="evenodd"/>
<path d="M49.35,12.24c-1.34,0-2.43,1.08-2.43,2.42s1.08,2.43,2.43,2.43h2.97c1.18,0,2.13,.95,2.13,2.13s-.95,2.12-2.13,2.12h-13.68c-1.88,0-3.4,1.52-3.4,3.41s1.52,3.4,3.4,3.4h18.11c1.24,0,2.24-1.01,2.24-2.25V14.48c0-1.24-1-2.24-2.24-2.24h-7.41Z" fill="#d1f1f4" fill-rule="evenodd"/>
<path d="M59,41.32c-7.78,0-13.63,1.03-20.15,6.05-8.29,6.38-17.45,.55-20.22,9.71H55.46c1.96,0,3.54-1.58,3.54-3.54v-12.22Z" fill="#91deb3" fill-rule="evenodd"/>
<path d="M57.84,45.61c-.96,0-1.81,.77-2.12,1.69-.44,1.33-.34,2.64-1.71,3l-3.44,.77c-1.53,.34-2.81,1.37-3.47,2.79l-1.5,3.22h9.87c1.96,0,3.54-1.58,3.54-3.54v-7.93h-1.16Z" fill="#8598ab" fill-rule="evenodd"/>
<path d="M12.81,22.34c1.09,0,1.96-.88,1.96-1.96s-.88-1.96-1.96-1.96h-2.41c-.95,0-1.72-.77-1.72-1.72s.77-1.73,1.72-1.73h11.06c1.52,0,2.75-1.22,2.75-2.75s-1.23-2.75-2.75-2.75H6.82c-1,0-1.82,.81-1.82,1.82v9.23c0,1.01,.81,1.82,1.82,1.82h5.99Z" fill="#d1f1f4" fill-rule="evenodd"/>
<path d="M10.86,51.74c-.55,0-1,.45-1,1v.65c-.33-.18-.74-.39-.74-.39-.53-.13-1.08,.2-1.21,.73-.13,.53,.2,1.08,.73,1.21,0,0,.87,.13,1.26,1.43,.13,.42,.52,.71,.96,.71s.83-.29,.96-.71c.4-1.3,1.26-1.43,1.26-1.43,.45-.11,.76-.51,.76-.97,0-.08,0-.16-.03-.24-.13-.53-.68-.86-1.21-.73,0,0-.41,.21-.74,.39v-.65c0-.55-.45-1-1-1Z" fill="#40b27a" fill-rule="evenodd"/>
<path d="M46.16,38.86c-.55,0-1,.45-1,1v.65c-.33-.17-.74-.38-.74-.38-.53-.14-1.08,.19-1.21,.73-.13,.53,.2,1.08,.73,1.21,0,0,.87,.12,1.26,1.42,.13,.42,.52,.71,.96,.71s.83-.29,.96-.71c.4-1.3,1.26-1.42,1.26-1.42,.53-.13,.86-.68,.73-1.21-.13-.54-.68-.87-1.21-.73,0,0-.41,.21-.74,.38v-.65c0-.55-.45-1-1-1Z" fill="#40b27a" fill-rule="evenodd"/>
<path d="M34.06,43.78c-.55,0-1,.45-1,1v.64c-.33-.17-.74-.38-.74-.38-.53-.13-1.08,.2-1.21,.73-.13,.53,.2,1.08,.73,1.21,0,0,.87,.13,1.26,1.43,.13,.42,.52,.71,.96,.71s.83-.29,.96-.71c.4-1.3,1.26-1.43,1.26-1.43,.53-.13,.86-.68,.73-1.21-.13-.53-.68-.86-1.21-.73,0,0-.41,.21-.74,.39v-.65c0-.55-.45-1-1-1Z" fill="#40b27a" fill-rule="evenodd"/>
<path d="M18.7,39.11c-.55,0-1,.45-1,1v.65l-.74-.38c-.53-.14-1.08,.19-1.21,.73-.13,.53,.2,1.08,.73,1.21,0,0,.87,.12,1.26,1.42,.13,.42,.52,.71,.96,.71s.83-.29,.96-.71c.4-1.3,1.26-1.42,1.26-1.42,.53-.13,.86-.68,.73-1.21-.13-.54-.68-.87-1.21-.73,0,0-.41,.21-.74,.38v-.65c0-.55-.45-1-1-1Z" fill="#40b27a" fill-rule="evenodd"/>
</g>
</svg>